<svg width="120" height="120" viewBox="0 0 120 120" fill="none" xmlns="http://www.w3.org/2000/svg">
  <!-- Shield background -->
  <path d="M60 6L102 24V54C102 82.5 82.5 108 60 114C37.5 108 18 82.5 18 54V24L60 6Z" fill="#38B2AC" stroke="#319795" stroke-width="3"/>
  
  <!-- VPN indicator -->
  <circle cx="60" cy="48" r="9" fill="white"/>
  
  <!-- Connection lines -->
  <line x1="42" y1="48" x2="51" y2="48" stroke="white" stroke-width="6" stroke-linecap="round"/>
  <line x1="69" y1="48" x2="78" y2="48" stroke="white" stroke-width="6" stroke-linecap="round"/>
  
  <!-- Lock symbol -->
  <rect x="48" y="66" width="24" height="18" rx="3" fill="white"/>
  <path d="M51 66V60C51 55.5 55.5 51 60 51C64.5 51 69 55.5 69 60V66" stroke="white" stroke-width="4.5" fill="none"/>
  
  <!-- Key hole -->
  <circle cx="60" cy="75" r="3" fill="#38B2AC"/>
  
  <!-- Signal waves -->
  <path d="M30 36C30 36 39 27 60 27C81 27 90 36 90 36" stroke="white" stroke-width="4.5" fill="none" opacity="0.6"/>
  <path d="M36 42C36 42 45 36 60 36C75 36 84 42 84 42" stroke="white" stroke-width="4.5" fill="none" opacity="0.8"/>
  
  <!-- Highlight -->
  <ellipse cx="48" cy="24" rx="6" ry="3" fill="white" opacity="0.3"/>
</svg>