<svg width="40" height="40" viewBox="0 0 40 40" fill="none" xmlns="http://www.w3.org/2000/svg">
  <!-- Shield background -->
  <path d="M20 2L34 8V18C34 27.5 27.5 36 20 38C12.5 36 6 27.5 6 18V8L20 2Z" fill="#38B2AC" stroke="#319795" stroke-width="1"/>
  
  <!-- VPN indicator -->
  <circle cx="20" cy="16" r="3" fill="white"/>
  
  <!-- Connection lines -->
  <line x1="14" y1="16" x2="17" y2="16" stroke="white" stroke-width="2" stroke-linecap="round"/>
  <line x1="23" y1="16" x2="26" y2="16" stroke="white" stroke-width="2" stroke-linecap="round"/>
  
  <!-- Lock symbol -->
  <rect x="16" y="22" width="8" height="6" rx="1" fill="white"/>
  <path d="M17 22V20C17 18.5 18.5 17 20 17C21.5 17 23 18.5 23 20V22" stroke="white" stroke-width="1.5" fill="none"/>
  
  <!-- Key hole -->
  <circle cx="20" cy="25" r="1" fill="#38B2AC"/>
  
  <!-- Signal waves -->
  <path d="M10 12C10 12 13 9 20 9C27 9 30 12 30 12" stroke="white" stroke-width="1.5" fill="none" opacity="0.6"/>
  <path d="M12 14C12 14 15 12 20 12C25 12 28 14 28 14" stroke="white" stroke-width="1.5" fill="none" opacity="0.8"/>
  
  <!-- Highlight -->
  <ellipse cx="16" cy="8" rx="2" ry="1" fill="white" opacity="0.3"/>
</svg>
